<?xml version="1.0" encoding="UTF-8" standalone="no"?>
<!DOCTYPE svg PUBLIC "-//W3C//DTD SVG 1.1//EN" "http://www.w3.org/Graphics/SVG/1.1/DTD/svg11.dtd">
<svg xmlns:xl="http://www.w3.org/1999/xlink" version="1.1" xmlns:dc="http://purl.org/dc/elements/1.1/" xmlns="http://www.w3.org/2000/svg" viewBox="171.5 -71.5 179.40902 179.32613" width="179.40902" height="179.32613">
  <defs/>
  <g id="Canvas_1" stroke-opacity="1" fill-opacity="1" stroke-dasharray="none" stroke="none" fill="none">
    <title>Canvas 1</title>
    <g id="Canvas_1_Layer_1">
      <title>Layer 1</title>
      <g id="Graphic_5">
        <path d="M 180.1291 -29 L 180 81.3792 C 179.9987 82.4762 180.8678 83.3742 181.9638 83.4212 C 188.0388 83.6802 206.8112 85.0122 218.6283 91.7312 C 227.0576 96.5242 227.8126 101.8892 236.6836 97.9752 C 245.5556 94.0622 241.6456 90.0892 243.7896 80.6332 C 246.7916 67.3882 258.1306 52.7822 261.9396 48.1532 C 262.6326 47.3112 262.5506 46.0732 261.7446 45.3392 Z" fill="#dadada"/>
        <path d="M 180.1291 -29 L 180 81.3792 C 179.9987 82.4762 180.8678 83.3742 181.9638 83.4212 C 188.0388 83.6802 206.8112 85.0122 218.6283 91.7312 C 227.0576 96.5242 227.8126 101.8892 236.6836 97.9752 C 245.5556 94.0622 241.6456 90.0892 243.7896 80.6332 C 246.7916 67.3882 258.1306 52.7822 261.9396 48.1532 C 262.6326 47.3112 262.5506 46.0732 261.7446 45.3392 Z" stroke="#a5a5a5" stroke-linecap="butt" stroke-linejoin="round" stroke-width="9"/>
      </g>
      <g id="Graphic_8">
        <path d="M 220.1291 -46 L 220 64.3792 C 219.9987 65.4762 220.8678 66.3742 221.9638 66.4212 C 228.0388 66.6802 246.8112 68.0122 258.6283 74.7312 C 267.0576 79.5242 267.8126 84.8892 276.6836 80.9752 C 285.5556 77.0622 281.6456 73.0892 283.7896 63.6332 C 286.7916 50.3882 298.1306 35.7822 301.9396 31.1532 C 302.6326 30.3112 302.5506 29.0732 301.7446 28.3392 Z" fill="#dadada"/>
        <path d="M 220.1291 -46 L 220 64.3792 C 219.9987 65.4762 220.8678 66.3742 221.9638 66.4212 C 228.0388 66.6802 246.8112 68.0122 258.6283 74.7312 C 267.0576 79.5242 267.8126 84.8892 276.6836 80.9752 C 285.5556 77.0622 281.6456 73.0892 283.7896 63.6332 C 286.7916 50.3882 298.1306 35.7822 301.9396 31.1532 C 302.6326 30.3112 302.5506 29.0732 301.7446 28.3392 Z" stroke="#a5a5a5" stroke-linecap="butt" stroke-linejoin="round" stroke-width="9"/>
      </g>
      <g id="Graphic_9">
        <path d="M 260.1291 -63 L 260 47.3792 C 259.9987 48.4762 260.8678 49.3742 261.9638 49.4212 C 268.0388 49.6802 286.8112 51.0122 298.6283 57.7312 C 307.0576 62.5242 307.8126 67.8892 316.6836 63.9752 C 325.5556 60.0622 321.6456 56.0892 323.7896 46.6332 C 326.7916 33.3882 338.1306 18.7822 341.9396 14.1532 C 342.6326 13.3112 342.5506 12.0732 341.7446 11.3392 Z" fill="#a5a5a5"/>
        <path d="M 260.1291 -63 L 260 47.3792 C 259.9987 48.4762 260.8678 49.3742 261.9638 49.4212 C 268.0388 49.6802 286.8112 51.0122 298.6283 57.7312 C 307.0576 62.5242 307.8126 67.8892 316.6836 63.9752 C 325.5556 60.0622 321.6456 56.0892 323.7896 46.6332 C 326.7916 33.3882 338.1306 18.7822 341.9396 14.1532 C 342.6326 13.3112 342.5506 12.0732 341.7446 11.3392 Z" stroke="#666" stroke-linecap="butt" stroke-linejoin="round" stroke-width="9"/>
      </g>
    </g>
  </g>
</svg>
